# xmcd CD database file
#
# Track frame offsets:
#	150
#	14534
#	31868
#	47023
#	67249
#	82019
#	99553
#	117225
#	138403
#	154533
#
# Disc length: 2240 seconds
#
# Revision: 0
# Processed by: cddbd v1.5.2PL0 Copyright (c) Steve Scherf et al.
# Submitted via: CDex 1.51
#
DISCID=8108be0a
DTITLE=Wake Campbell - Forever Christmas
DYEAR=2016
DGENRE=Jazz
TTITLE0=Oh Holy Night
TTITLE1=The Christmas Song
TTITLE2=Away in a Manger
TTITLE3=Have Yourself A Merry, Merry Christmas
TTITLE4=Christmas Time Is Here
TTITLE5=Silent Night
TTITLE6=My Favorite Things
TTITLE7=This Christmas
TTITLE8=White Christmas
TTITLE9=I'll Be Home For Christmas
EXTD=YEAR: 2016
EXTT0=
EXTT1=
EXTT2=
EXTT3=
EXTT4=
EXTT5=
EXTT6=
EXTT7=
EXTT8=
EXTT9=
PLAYORDER=
